<svg xmlns="http://www.w3.org/2000/svg" class="shopee-svg-icon _1ayx1Y XLYSy4 icon-shopee-logo" width="1000.0003" height="319.70123">
  <g style="fill:#ee4d2d;fill-rule:evenodd">
    <path d="M35.67174 44.953764c-.333349 2.751051-2.000311 4.954341-4.582384 6.057598-1.437971.614592-3.36871.946386-4.896954.842163-2.384027-.09111-4.623787-.670894-6.688335-1.730742-.737553-.378855-1.837052-1.135276-2.68131-1.843776-.213839-.179005-.239235-.293758-.09774-.494467.0764-.115182.217254-.322983.528622-.779199.45158-.661654.507921-.744602.558713-.822178.14448-.221769.379233-.241109.610785-.05888.02433.01891.02433.01891.04268.03331.03799.02944.03799.02944.12762.09907.0907.0707.14448.112389.166248.12872 2.226529 1.743851 4.819699 2.749547 7.437625 2.850117 3.642304-.04964 6.261511-1.687335 6.730804-4.202004.516031-2.767598-1.656504-5.158274-5.907033-6.490821-1.329344-.416676-4.689518-1.761687-5.309053-2.12507-2.909447-1.707104-4.269736-3.943058-4.076384-6.704854.296216-3.828306 3.850167-6.683579 8.340785-6.702705 2.008208-.0041 4.012147.413238 5.937338 1.224457.681638.28731 1.898727.949608 2.318936 1.263351.242009.177716.289813.384872.151095.60836-.07747.12958-.205515.335017-.475482.763298l-.003.0047c-.355331.564092-.366428.581714-.447952.713657-.140852.214463-.306459.234448-.56042.07328-2.060067-1.383907-4.34379-2.080157-6.855437-2.130442-3.126914.06189-5.470605 1.922856-5.624689 4.45794-.04097 2.289677 1.676352 3.961324 5.385881 5.23585 7.529819 2.419687 10.411309 5.25648 9.869029 9.729248M26.372522 5.4266937c4.902289 0 8.898217 4.6522033 9.085166 10.4757833H17.287569c.186949-5.82358 4.182877-10.4757833 9.084953-10.4757833M51.743379 16.997353c0-.604706-.487007-1.094876-1.087549-1.094876H38.87847c-.28896-7.6892751-5.777492-13.8205815-12.505948-13.8205815-6.728244 0-12.216776 6.1313064-12.505736 13.8205815l-11.7942195.000215c-.5913649.01075-1.0674873.496831-1.0674873 1.094661 0 .02858.00107.05695.0032.08488h-.008323l1.6812616 37.061399c.0002134.103148.00405.207156.011738.311809.00171.02364.00363.04706.00555.07048l.00363.07822.00405.0041c.2554543 2.578923 2.1270784 4.656071 4.6720177 4.751913l.00576.0056H44.796175c.01771.000215.03543.00043.05314.00043.01771 0 .03543-.000215.05314-.00043h.0796l.0017-.0015c2.589329-.0707 4.686743-2.176859 4.908265-4.787585l.0013-.0013.0017-.03503c.0021-.02751.0041-.0548.0058-.0823.0041-.06576.0068-.1313.0079-.196412l1.83449-37.207738h-.0013c.0011-.0187.0015-.03761.0015-.05652m124.72208 24.15454c.72084-2.35125 2.90042-3.918678 5.44373-3.918678 2.42769 0 4.73911 1.64869 5.5376 3.914199l.0548.155697h-11.08266zm13.50267 3.406368c.0149.00064.0149.00064.0369.000853.022-.000213.022-.000213.0444-.000853.53055-.02432.9506-.476691.9506-1.027179 0-.02666-.00085-.04969-.003-.08659.00043-.0068.00043-.02026.00043-.06356 0-5.192627-4.07075-9.400732-9.09145-9.400732-5.02049 0-9.09124 4.208105-9.09124 9.400732 0 .387111.0224.773157.0678 1.156856l.003.02048.0141.10131c.25002 1.868373 1.04723 3.583181 2.3063 4.970811-.00064-.00064.00064.00064.007.0079 1.39603 1.536289 3.29146 2.583303 5.39361 2.974894l.0275.0053v-.0028l.13653.02282c.0702.01194.14421.02367.2434.03903 2.76688.332724 5.22124-.06612 7.29949-1.112706.51178-.257861.97193-.542383 1.37064-.842901.12821-.09683.24362-.190463.34346-.278123.0514-.04522.0924-.08318.11413-.105149.4689-.48309.49812-.654357.21525-1.09543-.31146-.495673-.58623-.917977-.82175-1.26755-.0823-.122425-.15402-.226722-.21439-.313315-.0333-.04756-.0333-.04756-.0544-.07764-.008-.01173-.008-.01173-.0139-.0192l-.003-.0038c-.2562-.318861-.43156-.348081-.71593-.09705-.0303.02687-.13162.105149-.14997.124558-1.99932 1.775381-4.72951 2.346557-7.45585 1.776021-.50773-.136289-.9826-.309476-1.41992-.518495-1.70813-.856551-2.91835-2.382602-3.26757-4.149025l-.0275-.139488zm-35.13617-3.406368c.72083-2.35125 2.90039-3.918678 5.44367-3.918678 2.42766 0 4.73906 1.64869 5.53775 3.914199l.0546.155697h-11.08253zm13.50252 3.406368c.0151.00064.0151.00064.0371.000853.0218-.000213.0218-.000213.0442-.000853.53055-.02432.95059-.476691.95059-1.027179 0-.02666-.00086-.04969-.003-.08659.00042-.0068.00042-.02026.00042-.06356 0-5.192627-4.0707-9.400732-9.09134-9.400732-5.02022 0-9.09134 4.208105-9.09134 9.400732 0 .387111.0228.773157.068 1.156856l.003.02048.0141.10131c.25002 1.868373 1.04722 3.583181 2.30627 4.970811-.00064-.00064.00064.00064.007.0079 1.39601 1.536289 3.29141 2.583303 5.39353 2.974894l.0275.0053v-.0028l.13653.02282c.0702.01194.14421.02367.24362.03903 2.76685.332724 5.22117-.06612 7.29919-1.112706.51177-.257861.97191-.542383 1.37062-.842901.12821-.09683.24362-.190463.34346-.278123.0514-.04522.0924-.08318.11413-.105149.46889-.48309.49811-.654357.21524-1.09543-.31145-.495673-.58622-.917977-.82173-1.26755-.0823-.122425-.15402-.226722-.21418-.313315-.0335-.04756-.0335-.04756-.0546-.07764-.008-.01173-.008-.01173-.0139-.0192l-.002-.0038c-.25641-.318861-.43177-.348081-.71613-.09705-.0303.02687-.13163.105149-.14997.124558-1.99909 1.775381-4.72945 2.346557-7.45577 1.776021-.50772-.136289-.98258-.309476-1.4199-.518495-1.70811-.856551-2.9181-2.382602-3.26731-4.149025l-.0277-.139488zm-30.01304 5.177529c-3.3813 0-6.14681-2.680852-6.23169-6.04042v-.316217c.084-3.354187 2.85039-6.035469 6.23169-6.035469 3.44242 0 6.23321 2.77406 6.23321 6.196053 0 3.421994-2.79079 6.196053-6.23321 6.196053m.002-15.679132c-2.21777 0-4.33683.755349-6.0399 2.140764l-.19352.157356v-1.733922c0-.462379-.0994-.564198-.5674-.564198h-2.17652c-.47409 0-.56761.09428-.56761.564198v27.640072c0 .453984.10583.564197.56761.564197h2.17652c.46351 0 .5674-.107845.5674-.564197v-11.52676l.19352.157355c1.70329 1.385631 3.82235 2.140979 6.0399 2.140979 5.27141 0 9.54474-4.247947 9.54474-9.488029 0-5.239867-4.27333-9.487815-9.54474-9.487815m-22.41552 15.467371c-3.44946 0-6.24581-2.749695-6.24581-6.142585 0-3.392891 2.79656-6.142799 6.24581-6.142799 3.44882 0 6.24538 2.749908 6.24538 6.142799 0 3.392677-2.79635 6.142585-6.24538 6.142585m.002-15.543831c-5.28187 0-9.56302 4.21129-9.56302 9.405941 0 5.194437 4.28115 9.40594 9.56302 9.40594 5.28166 0 9.56239-4.211503 9.56239-9.40594 0-5.194651-4.28052-9.405941-9.56239-9.405941m-21.317654.208896c-1.928131 0-3.79389.619899-5.341772 1.765605l-.188189.13931V23.257417c0-.425468-.139582-.564348-.564997-.564348h-2.278269c-.460042 0-.565213.110028-.565213.564348v29.283415c0 .443339.113559.564779.565213.564779h2.278269c.422619 0 .564997-.145771.564997-.564779v-9.56484c.02366-3.011002 2.493128-5.441292 5.529961-5.441292 3.044575 0 5.516844 2.442132 5.529744 5.463039v9.543093c0 .484465.0806.564563.56521.564563h2.27268c.48176 0 .56521-.08247.56521-.564563v-9.571084c-.0181-4.828068-4.044017-8.780654-8.932844-8.780654M62.846335 47.793806l-.0053.0082c-.324866.492119-.460922.699135-.536959.817981-.256091.38121-.224267.551113.166812.881695.91266.735818 2.085897 1.508535 2.877453 1.895537 2.202302 1.076912 4.581027 1.646045 7.101788 1.697531 1.628392.08216 3.673494-.305054 5.196374-.984238 2.756989-1.229868 4.513106-3.626962 4.820886-6.57946.498513-4.784107-2.614313-7.774791-10.632179-10.184971l-.0021-.000644c-3.735648-1.204768-5.490484-2.806407-5.491125-5.042608.109998-2.471535 2.40158-4.317946 5.49326-4.433145 2.490432.0062 4.692307.667599 6.855736 2.059862.456223.276736.666607.22568.973319-.172263.03524-.05878.133279-.201224.543367-.790093l.0013-.0019c.382963-.55004.50898-.733673.540377-.787948.258441-.486326.22149-.67382-.244985-1.004617-.459427-.32908-1.753554-1.002472-2.493636-1.297872-2.058343-.821199-4.186317-1.22-6.304252-1.178811-4.819818.104688-8.578747 3.239317-8.826509 7.351534-.1572 2.970303 1.350301 5.358817 4.500078 7.124567.882971.466161 4.111562 1.68659 5.618423 2.127866 4.284781 1.254753 6.518694 3.563035 6.057131 6.286421-.419272 2.474323-3.011799 4.119939-6.649837 4.232565-2.638234-.05492-5.296332-1.02178-7.60436-2.756209-.01153-.0084-.07006-.05192-.177919-.132361-.151647-.113055-.151647-.113055-.174287-.130002-.470534-.32479-.747343-.29776-1.034619.130216-.0346.05299-.391933.596378-.568143.863246" style="fill:#ee4d2d" transform="matrix(5.26316 0 0 5.26316 -5.2629262 -10.957342)"/>
  </g>
</svg>
